<?xml version="1.0" standalone="no"?><!DOCTYPE svg PUBLIC "-//W3C//DTD SVG 1.1//EN" "http://www.w3.org/Graphics/SVG/1.1/DTD/svg11.dtd"><svg t="1680621356365" class="icon" viewBox="0 0 1024 1024" version="1.1" xmlns="http://www.w3.org/2000/svg" p-id="10465" width="200" height="200" xmlns:xlink="http://www.w3.org/1999/xlink"><path d="M246.797399 863.928647l-20.790048 43.262528-43.502875 20.790048L226.007351 949.372139l20.790048 43.262528 20.910222-43.262528 43.382702-20.790048-43.382702-20.790048z m8.051637-687.874193l24.034738-48.670344 48.790518-23.433869-49.271213-23.313696-24.034737-48.069475-22.953175 48.069475-48.910691 23.313696 48.910691 23.433869zM801.519146 889.285295l-72.104213-25.356648 25.356648 72.104213-25.356648 72.104213 72.104213-25.356648 72.104213 25.356648-25.356649-72.104213 25.356649-72.104213zM504.089267 448.007511a64.052576 64.052576 0 1 0 64.292923 63.932402 64.052576 64.052576 0 0 0-64.292923-63.932402z m333.00129 63.932402c105.392325-99.744161 156.225795-197.565544 122.697336-255.969956-19.347964-33.408285-63.932402-49.271212-124.620115-49.271213a599.306185 599.306185 0 0 0-160.552047 26.798733C640.005708 93.014435 580.279385 0 512.02073 0S384.035752 93.014435 349.545903 233.497477a599.306185 599.306185 0 0 0-160.431874-26.798733c-60.807886 0-105.272151 15.862927-124.740289 49.271213-34.489849 58.404413 17.305011 156.225795 122.697336 255.969956C81.678751 611.804248 29.883892 709.024762 64.37374 767.90987 83.841878 801.318155 128.306142 817.181082 189.114029 817.181082a599.306185 599.306185 0 0 0 160.431874-26.678559c34.489849 140.362868 94.336345 233.497477 162.474827 233.497477s127.984978-93.134609 162.595001-233.497477A599.306185 599.306185 0 0 0 835.047605 817.181082c60.086844 0 105.272151-15.983101 124.620115-49.271212 34.249501-58.284239-17.184837-156.105621-122.577163-255.969957zM189.114029 753.24868c-46.387044 0-65.254313-11.296327-68.73935-17.305011-12.017369-20.669874 21.871611-93.374956 115.246567-181.221923 26.678559 22.111959 55.640418 44.103744 87.005751 65.494661 3.124516 37.614365 7.81129 73.30595 13.819974 107.315103a541.502641 541.502641 0 0 1-147.332942 25.71717zM318.300744 538.498298c-12.017369-8.772679-23.193522-17.665532-34.249501-26.558385 10.815632-8.892853 22.352306-17.785706 34.249501-26.678559v53.236944z m3.965732-134.834878c-31.365333 21.51109-60.086844 43.502875-87.125924 65.614834a674.534914 674.534914 0 0 1-58.64476-61.408755c-60.687713-72.945429-61.168407-112.001878-56.481634-120.173689 3.485037-5.888511 22.232132-17.305011 68.73935-17.305011a537.536909 537.536909 0 0 1 147.332942 25.837343c-5.768337 34.129328-10.334937 69.941087-13.459453 107.435278z m309.567421-44.103744c-7.81129-4.686774-15.262058-9.373548-23.193521-13.819974s-15.502406-8.412158-23.313696-12.618237c13.579627-5.648163 27.03908-11.055979 40.378359-15.983101 2.523647 13.579627 5.047295 27.760122 6.489379 42.421312z m-120.173688-295.5071c24.034738 0 70.782303 65.49466 100.945898 189.513907q-49.271212 17.785706-100.945898 42.060791a1187.207886 1187.207886 0 0 0-100.825725-41.940618c30.524117-124.13942 77.031334-189.634081 101.186246-189.63408z m-113.564136 253.085788c13.339279 4.927121 26.798733 10.334937 40.37836 15.983101-7.81129 4.206079-15.502406 8.171811-23.313696 12.618237s-15.502406 9.1332-23.193522 13.819974c1.802605-14.66119 3.845558-28.841685 6.128858-42.421312z m-6.128858 347.30196c7.691116 4.5666 15.262058 9.253374 23.193522 13.819974s15.502406 8.291985 23.313696 12.618237q-20.429527 8.412158-40.37836 15.862927c-2.2833-13.579627-4.326253-27.639948-6.128858-42.301138z m120.173689 295.5071c-24.034738 0-70.662129-65.49466-100.825725-189.63408 32.687243-12.017369 66.45605-25.837343 100.825725-42.060791 34.489849 16.223448 68.138481 30.163596 100.945898 42.060791-30.403943 124.13942-76.790987 189.634081-101.066072 189.63408z m114.04483-253.205962q-19.948832-7.450769-40.378359-15.862927c7.81129-4.326253 15.502406-8.171811 23.313695-12.618237s15.502406-9.253374 23.193522-13.819974c-1.562258 14.66119-4.085905 28.721512-6.249032 42.301138z m-120.173688-66.816571A127.984978 127.984978 0 1 1 635.559282 511.939913a128.465673 128.465673 0 0 1-129.306889 127.984978zM835.047605 270.631147c46.387044 0 65.254313 11.4165 68.619176 17.305011 12.017369 20.790048-21.871611 93.374956-115.246567 181.221922-26.798733-22.111959-55.760591-44.103744-87.005751-65.49466-3.124516-37.494191-7.81129-73.30595-13.819974-107.315104A540.781598 540.781598 0 0 1 835.047605 270.631147zM705.380195 485.381528c12.017369 8.772679 23.313696 17.665532 34.369675 26.678559-10.935806 8.772679-22.352306 17.665532-34.369675 26.678559V511.939913c0-9.1332 0.240347-17.665532 0-26.558385z m198.526933 250.562141c-3.485037 6.008684-22.352306 17.305011-68.73935 17.305011a540.781598 540.781598 0 0 1-147.453115-25.71717c6.008684-34.009154 10.695458-69.700739 13.819974-107.315103 31.365333-21.390917 60.086844-43.382702 87.125924-65.614834A691.35923 691.35923 0 0 1 847.064974 616.130501c60.92806 72.945429 61.408755 112.001878 56.842154 119.813168z" fill="#1296db" p-id="10466"></path></svg>